<?xml version="1.0" standalone="no"?>
<!DOCTYPE svg PUBLIC "-//W3C//DTD SVG 20010904//EN"
 "http://www.w3.org/TR/2001/REC-SVG-20010904/DTD/svg10.dtd">
<svg version="1.0" xmlns="http://www.w3.org/2000/svg"
 width="455.000000pt" height="455.000000pt" viewBox="0 0 455.000000 455.000000"
 preserveAspectRatio="xMidYMid meet">
<g transform="translate(0.000000,455.000000) scale(0.100000,-0.100000)"
fill="#000000" stroke="none">
<path d="M1257 4058 c-41 -55 -87 -156 -108 -236 -24 -95 -26 -267 -3 -356 36
-141 154 -305 289 -401 71 -51 114 -71 310 -145 173 -65 243 -101 308 -160
126 -113 179 -262 155 -439 -13 -97 -40 -170 -95 -254 -25 -37 -43 -71 -40
-74 11 -10 135 67 193 120 294 268 260 708 -73 952 -46 34 -177 106 -319 176
-320 159 -410 231 -507 409 -65 118 -84 254 -51 359 14 41 14 53 4 66 -19 23
-37 18 -63 -17z"/>
<path d="M2171 3927 c-154 -59 -204 -258 -96 -385 43 -51 113 -82 184 -82 98
0 172 46 215 132 58 117 9 265 -108 325 -40 21 -151 26 -195 10z"/>
<path d="M921 3327 c-43 -52 -59 -304 -27 -426 29 -114 91 -217 186 -311 156
-156 249 -188 580 -199 249 -8 283 -16 378 -89 24 -18 46 -31 50 -28 3 3 0 30
-7 60 -40 180 -197 323 -406 370 -349 78 -399 100 -525 226 -114 114 -164 209
-167 316 -1 41 -4 78 -8 84 -9 14 -41 12 -54 -3z"/>
<path d="M3075 2966 c-83 -19 -158 -54 -272 -127 -104 -67 -135 -90 -129 -96
2 -2 41 5 86 16 125 32 130 30 78 -28 -58 -65 -99 -144 -149 -286 -65 -189
-112 -267 -230 -381 -129 -123 -247 -200 -568 -368 -223 -117 -286 -159 -377
-251 -219 -221 -217 -526 5 -745 136 -134 252 -175 491 -174 147 0 160 2 250
32 137 45 211 92 320 202 73 74 109 120 159 205 35 61 77 134 94 162 110 188
294 255 413 151 47 -42 67 -83 68 -143 1 -117 -111 -212 -205 -172 -39 17 -64
42 -74 77 -15 48 -62 55 -95 13 -48 -61 -2 -163 96 -213 67 -35 188 -35 252
-2 60 32 114 90 147 157 38 77 40 190 6 277 -58 150 -233 253 -396 234 -189
-22 -327 -126 -488 -366 -119 -178 -214 -274 -329 -329 -101 -49 -113 -51 -63
-11 75 59 137 151 223 330 46 96 99 194 118 216 18 23 30 44 27 48 -12 12 -79
-7 -148 -42 -58 -30 -100 -67 -240 -207 -181 -183 -226 -214 -335 -236 -42 -9
-69 -9 -112 0 -70 15 -113 43 -153 100 -26 37 -30 51 -30 109 1 165 134 284
405 363 36 11 202 42 370 69 353 58 446 82 589 151 87 43 117 63 180 127 83
83 138 179 161 281 12 52 9 213 -6 352 -13 115 42 221 134 256 64 24 153 24
181 -1 21 -19 21 -19 21 11 0 46 -39 95 -93 117 -26 11 -67 38 -90 61 -67 64
-178 87 -292 61z"/>
<path d="M837 2484 c-11 -11 -8 -183 4 -234 16 -73 84 -201 138 -261 60 -68
153 -129 241 -161 94 -33 276 -33 372 0 88 30 173 87 267 176 75 71 160 136
179 136 5 0 15 6 21 14 9 11 5 15 -20 20 -70 14 -248 5 -394 -19 -163 -27
-268 -31 -361 -14 -71 13 -190 66 -245 110 -53 42 -127 147 -137 195 -6 31
-13 40 -33 42 -14 2 -28 0 -32 -4z"/>
</g>
</svg>
